<?xml version="1.0" encoding="UTF-8"?>
<svg id="Layer_1" data-name="Layer 1" xmlns="http://www.w3.org/2000/svg" version="1.1" viewBox="0 0 8.7 10.3">
  <defs>
    <style>
      .cls-1 {
        fill: #fff200;
      }

      .cls-1, .cls-2 {
        stroke-width: 0px;
      }

      .cls-2 {
        fill: #231f20;
      }
    </style>
  </defs>
  <path class="cls-2" d="M5.1,4.3c0,.4-.4.8-.8.8s-.8-.4-.8-.8.4-.8.8-.8.8.4.8.8Z"/>
  <path class="cls-2" d="M8.6,3.6c-.4-1.8-1.6-2.9-2.9-3.3C4.1-.3,2.4,0,1.3,1.2,0,2.4-.3,4.1.2,5.6c.2.6.6,1.2,1,1.7l3,3,3.3-3.3c.8-.8,1.2-2.3.9-3.4ZM4.3,6.8c-1.4,0-2.5-1.1-2.5-2.5s1.1-2.5,2.5-2.5,2.5,1.1,2.5,2.5-1.1,2.5-2.5,2.5Z"/>
  <path class="cls-1" d="M5.1,4.3c0,.4-.4.8-.8.8s-.8-.4-.8-.8.4-.8.8-.8.8.4.8.8Z"/>
  <path class="cls-2" d="M5.1,4.3c0,.4-.4.8-.8.8s-.8-.4-.8-.8.4-.8.8-.8.8.4.8.8Z"/>
</svg>